<?xml version="1.0" standalone="no"?>
<!DOCTYPE svg PUBLIC "-//W3C//DTD SVG 20010904//EN"
 "http://www.w3.org/TR/2001/REC-SVG-20010904/DTD/svg10.dtd">
<svg version="1.0" xmlns="http://www.w3.org/2000/svg"
 width="512.000000pt" height="512.000000pt" viewBox="0 0 512.000000 512.000000"
 preserveAspectRatio="xMidYMid meet">

<g transform="translate(0.000000,512.000000) scale(0.100000,-0.100000)"
fill="#000000" stroke="none" opacity="0.4">
<path d="M2272 5059 c-35 -4 -80 -13 -100 -20 -62 -20 -170 -80 -216 -120 -24
-22 -53 -39 -63 -39 -30 0 -127 -35 -191 -70 -91 -48 -195 -157 -242 -254 -64
-129 -73 -191 -67 -471 5 -245 14 -324 58 -490 18 -66 22 -125 29 -340 7 -233
10 -270 33 -357 56 -212 164 -402 312 -549 l85 -84 0 -146 c0 -146 0 -147 -23
-153 -41 -10 -76 -45 -139 -140 -34 -50 -62 -92 -63 -94 -1 -1 -141 -53 -312
-115 -170 -62 -339 -130 -376 -150 -95 -54 -185 -149 -236 -249 -67 -134 -71
-165 -71 -646 l0 -424 29 -29 c16 -16 37 -29 46 -29 29 0 75 30 80 53 2 12 6
213 8 447 3 395 4 429 23 485 36 105 109 197 199 250 57 34 626 238 635 228 4
-4 85 -117 179 -250 176 -247 202 -275 272 -288 46 -8 111 19 153 64 33 35 46
39 46 15 0 -9 9 -32 21 -50 l20 -33 -25 -421 c-15 -248 -22 -430 -17 -444 20
-52 93 -68 132 -29 24 23 25 34 55 551 l18 303 45 -3 46 -3 23 -400 c14 -238
28 -410 35 -425 29 -61 109 -61 138 1 16 32 15 61 -9 450 l-25 417 25 49 24
50 45 -39 c24 -21 61 -43 81 -48 50 -14 121 4 158 41 16 16 103 134 195 263
l167 235 106 -39 c521 -187 527 -190 595 -255 60 -58 96 -114 119 -188 16 -53
18 -100 18 -470 0 -255 4 -426 11 -449 7 -26 19 -43 39 -53 41 -21 58 -19 91
14 l29 29 0 424 c0 473 -4 511 -65 635 -59 120 -156 218 -275 278 -25 12 -179
71 -342 130 l-297 108 -62 94 c-69 103 -103 138 -149 148 l-30 7 0 135 0 136
95 94 c138 137 227 277 285 451 46 138 60 250 60 484 0 187 2 216 26 312 55
232 56 236 61 696 3 291 1 455 -6 494 -28 154 -137 260 -292 286 -76 12 -1162
12 -1257 -1z m1315 -195 c75 -60 73 -47 73 -529 0 -455 -3 -497 -50 -695 -27
-115 -29 -144 -34 -375 -6 -310 -21 -386 -107 -558 -84 -165 -230 -316 -399
-410 -274 -151 -623 -154 -900 -5 -199 106 -371 299 -454 509 -57 146 -68 216
-73 474 -4 208 -8 253 -28 335 -41 164 -55 267 -61 459 -10 299 12 392 124
512 75 81 156 124 275 144 24 4 55 21 87 50 27 24 69 55 92 69 94 55 100 55
785 53 l631 -2 39 -31z m-1416 -2753 c260 -122 582 -125 869 -9 41 16 81 32
88 35 9 4 12 -22 12 -109 l0 -115 -266 -165 -265 -166 -265 165 -264 165 0
119 c0 66 2 119 4 119 2 0 41 -18 87 -39z m44 -476 c138 -85 251 -159 253
-163 3 -9 -286 -298 -291 -292 -25 31 -329 463 -333 474 -3 8 16 46 42 85 38
57 50 69 63 61 9 -4 129 -79 266 -165z m1120 100 l47 -75 -168 -235 c-92 -130
-170 -238 -174 -240 -12 -7 -295 284 -285 294 10 9 526 331 531 331 1 0 24
-34 49 -75z m-635 -532 l0 -73 -90 0 -90 0 0 77 0 77 42 43 42 43 48 -47 48
-47 0 -73z"/>
<path d="M2000 4210 c-81 -10 -126 -28 -174 -70 -69 -61 -80 -96 -84 -262 -4
-146 -4 -147 22 -173 33 -33 84 -34 114 -2 20 21 22 34 22 138 0 140 14 177
75 198 55 19 522 21 660 3 201 -26 406 -82 527 -143 24 -12 80 -46 126 -77 89
-59 127 -68 161 -38 52 47 34 99 -56 165 -161 119 -382 200 -668 247 -113 18
-614 28 -725 14z"/>
<path d="M1264 944 c-16 -8 -32 -21 -36 -27 -17 -26 -6 -79 30 -148 l37 -71 5
-279 c5 -271 6 -279 27 -301 30 -30 86 -30 116 0 21 22 22 30 25 259 4 292 -3
340 -65 463 -39 76 -54 97 -79 107 -25 10 -36 9 -60 -3z"/>
<path d="M3883 928 c-30 -33 -81 -139 -98 -205 -11 -44 -15 -119 -15 -318 0
-249 1 -262 20 -283 11 -12 31 -24 44 -28 32 -8 84 21 91 49 2 12 6 137 7 277
l3 255 43 91 c48 103 50 121 21 158 -27 35 -86 36 -116 4z"/>
</g>
</svg>
