<?xml version="1.0" encoding="iso-8859-1"?>
<!-- Generator: Adobe Illustrator 17.1.0, SVG Export Plug-In . SVG Version: 6.00 Build 0)  -->
<!DOCTYPE svg PUBLIC "-//W3C//DTD SVG 1.1//EN" "http://www.w3.org/Graphics/SVG/1.1/DTD/svg11.dtd">
<svg version="1.1" id="Capa_1" xmlns="http://www.w3.org/2000/svg" xmlns:xlink="http://www.w3.org/1999/xlink" x="0px" y="0px"
	 viewBox="0 0 465 465" style="enable-background:new 0 0 465 465;" xml:space="preserve">
<g>
	<path d="M232.5,288.716c-17.351,0-32.099,6.266-42.649,18.121c-12.464,14.005-18.102,34.973-15.467,57.528
		c0.441,3.78,3.644,6.63,7.449,6.63h18.119l3.745,17.768c0.731,3.47,3.793,5.953,7.339,5.953h42.928
		c3.546,0,6.607-2.483,7.339-5.953l3.745-17.768h18.119c3.806,0,7.008-2.85,7.449-6.63c2.635-22.555-3.003-43.523-15.467-57.528
		C264.599,294.982,249.851,288.716,232.5,288.716z M276.216,355.995h-17.252c-3.546,0-6.607,2.483-7.339,5.953l-3.745,17.768h-30.76
		l-3.745-17.768c-0.731-3.47-3.793-5.953-7.339-5.953h-17.252c-0.512-15.669,3.827-29.697,12.271-39.186
		c7.732-8.688,18.312-13.093,31.444-13.093s23.712,4.405,31.444,13.093C272.389,326.298,276.728,340.326,276.216,355.995z"/>
	<path d="M219.595,330.365h-3.225c-4.143,0-7.5,3.358-7.5,7.5s3.357,7.5,7.5,7.5h3.225c4.143,0,7.5-3.358,7.5-7.5
		S223.737,330.365,219.595,330.365z"/>
	<path d="M248.63,330.365h-3.225c-4.143,0-7.5,3.358-7.5,7.5s3.357,7.5,7.5,7.5h3.225c4.143,0,7.5-3.358,7.5-7.5
		S252.772,330.365,248.63,330.365z"/>
	<path d="M288.681,150.889v-39.968c2.914-2.219,4.799-5.724,4.799-9.661V77.604c0-6.692-5.444-12.136-12.137-12.136h-2.14
		l3.496-57.512c0.125-2.064-0.607-4.089-2.024-5.595C279.257,0.854,277.28,0,275.212,0h-85.424c-2.068,0-4.045,0.854-5.462,2.36
		c-1.417,1.506-2.149,3.531-2.024,5.595l3.496,57.512h-2.14c-6.692,0-12.137,5.444-12.137,12.136v23.657
		c0,3.937,1.885,7.442,4.799,9.661v39.968c-43.793,21.408-71.827,66.034-71.827,115.042V457.5c0,4.142,3.357,7.5,7.5,7.5h241.016
		c4.143,0,7.5-3.358,7.5-7.5V265.931C360.508,216.923,332.474,172.297,288.681,150.889z M197.758,15h69.484l-3.068,50.467h-63.349
		L197.758,15z M186.853,162.529c2.715-1.201,4.467-3.89,4.467-6.859v-42.273h3.047c4.143,0,7.5-3.358,7.5-7.5s-3.357-7.5-7.5-7.5
		h-7.846v-17.93h84.702c0.005,0,0.011,0,0.016,0c0.003,0,0.007,0,0.01,0h7.23v17.93h-54.113c-4.143,0-7.5,3.358-7.5,7.5
		s3.357,7.5,7.5,7.5h49.314v42.273c0,2.969,1.752,5.659,4.467,6.859c38.619,17.075,64.329,54.189,67.099,95.902h-22.411
		c-4.143,0-7.5,3.358-7.5,7.5s3.357,7.5,7.5,7.5h22.672V410H119.492V273.431h173.344c4.143,0,7.5-3.358,7.5-7.5s-3.357-7.5-7.5-7.5
		H119.753C122.524,216.718,148.234,179.604,186.853,162.529z M119.492,450v-25h226.016v25H119.492z"/>
</g>
<g>
</g>
<g>
</g>
<g>
</g>
<g>
</g>
<g>
</g>
<g>
</g>
<g>
</g>
<g>
</g>
<g>
</g>
<g>
</g>
<g>
</g>
<g>
</g>
<g>
</g>
<g>
</g>
<g>
</g>
</svg>
