<?xml version="1.0" encoding="iso-8859-1"?>
<!-- Generator: Adobe Illustrator 17.1.0, SVG Export Plug-In . SVG Version: 6.00 Build 0)  -->
<!DOCTYPE svg PUBLIC "-//W3C//DTD SVG 1.1//EN" "http://www.w3.org/Graphics/SVG/1.1/DTD/svg11.dtd">
<svg version="1.1" id="Capa_1" xmlns="http://www.w3.org/2000/svg" xmlns:xlink="http://www.w3.org/1999/xlink" x="0px" y="0px"
	 viewBox="0 0 465 465" style="enable-background:new 0 0 465 465;" xml:space="preserve">
<g>
	<path d="M353.683,220.737c-18.48-24.282-44.252-42.708-73.034-52.327V69.829h2.5c4.143,0,7.5-3.357,7.5-7.5s-3.357-7.5-7.5-7.5
		h-11.466l2.744-46.891c0.12-2.062-0.614-4.082-2.031-5.585C270.979,0.852,269.005,0,266.939,0h-68.879
		c-2.065,0-4.039,0.852-5.456,2.354c-1.417,1.503-2.151,3.523-2.031,5.585l2.744,46.891h-11.466c-4.143,0-7.5,3.357-7.5,7.5
		s3.357,7.5,7.5,7.5h2.5v98.581c-28.782,9.619-54.554,28.045-73.033,52.327c-20.285,26.654-31.008,58.493-31.008,92.073
		C80.311,396.729,148.582,465,232.5,465s152.189-68.271,152.189-152.189C384.689,279.23,373.968,247.392,353.683,220.737z
		 M206.013,15h52.975l-2.331,39.829h-48.313L206.013,15z M232.5,450c-75.646,0-137.189-61.543-137.189-137.189
		c0-60.568,40.564-114.722,98.645-131.691c3.198-0.935,5.396-3.867,5.396-7.199V69.829h1.918h62.461h1.918V173.92
		c0,3.332,2.198,6.265,5.396,7.199c58.08,16.97,98.645,71.123,98.645,131.691C369.689,388.457,308.146,450,232.5,450z"/>
	<path d="M117.814,305.247c0.338,0.046,0.672,0.067,1.003,0.067c3.7,0,6.921-2.739,7.424-6.508
		c5.235-39.202,31.395-72.254,68.268-86.256c3.873-1.471,5.82-5.802,4.35-9.674c-1.47-3.874-5.802-5.816-9.674-4.35
		c-20.529,7.796-38.654,21.125-52.415,38.548c-13.713,17.361-22.495,38.021-25.396,59.745
		C110.825,300.927,113.709,304.699,117.814,305.247z"/>
	<path d="M347.218,320.364c-0.464-0.063-0.93-0.083-1.391-0.056c-13.808-0.195-26.081-8.876-30.623-21.705
		c-1.061-2.995-3.894-4.997-7.07-4.997c-3.178,0-6.01,2.002-7.07,4.997c-4.597,12.984-16.943,21.708-30.724,21.708
		s-26.128-8.724-30.725-21.708c-1.061-2.995-3.894-4.997-7.07-4.997c-3.178,0-6.01,2.002-7.07,4.997
		c-4.596,12.984-16.943,21.708-30.724,21.708s-26.128-8.724-30.724-21.708c-1.061-2.995-3.893-4.997-7.07-4.997
		c-3.177,0-6.01,2.002-7.07,4.997c-4.597,12.984-17.095,21.708-31.1,21.708c-2.159,0-4.214,0.931-5.638,2.554
		s-2.079,3.781-1.799,5.922c5.444,41.491,32.599,78.041,70.868,95.384c2.068,0.938,4.452,0.887,6.479-0.138
		c12.903-6.522,28.05-9.97,43.802-9.97s30.898,3.447,43.802,9.97c1.063,0.537,2.223,0.807,3.384,0.807
		c1.055,0,2.111-0.223,3.096-0.669c37.867-17.161,64.853-53.126,70.689-94.078c0.229-0.719,0.353-1.486,0.353-2.281
		C353.823,323.972,350.938,320.807,347.218,320.364z M279.716,409.029c-14.218-6.529-30.457-9.966-47.216-9.966
		s-32.998,3.437-47.216,9.967c-29.591-14.6-51.086-42.452-57.759-74.512c11.767-2.158,22.25-8.6,29.418-17.898
		c8.848,11.549,22.741,18.691,37.808,18.691c15.059,0,28.945-7.136,37.794-18.674c8.85,11.539,22.736,18.674,37.795,18.674
		c15.066,0,28.961-7.144,37.81-18.693c7.149,9.272,17.602,15.708,29.329,17.883C330.809,366.567,309.311,394.429,279.716,409.029z"
		/>
</g>
<g>
</g>
<g>
</g>
<g>
</g>
<g>
</g>
<g>
</g>
<g>
</g>
<g>
</g>
<g>
</g>
<g>
</g>
<g>
</g>
<g>
</g>
<g>
</g>
<g>
</g>
<g>
</g>
<g>
</g>
</svg>
